<?xml version="1.0" encoding="UTF-8"?> <svg xmlns="http://www.w3.org/2000/svg" width="24" height="25" viewBox="0 0 24 25" fill="none"><path opacity="0.4" d="M20 16.5H7C5.34315 16.5 4 17.8431 4 19.5" stroke="#1D63ED" stroke-width="2" stroke-linecap="round" stroke-linejoin="round"></path><path d="M4 7.3C4 5.61984 4 4.77976 4.32698 4.13803C4.6146 3.57354 5.07354 3.1146 5.63803 2.82698C6.27976 2.5 7.11984 2.5 8.8 2.5H16.8C17.9201 2.5 18.4802 2.5 18.908 2.71799C19.2843 2.90973 19.5903 3.21569 19.782 3.59202C20 4.01984 20 4.57989 20 5.7V19.3C20 20.4201 20 20.9802 19.782 21.408C19.5903 21.7843 19.2843 22.0903 18.908 22.282C18.4802 22.5 17.9201 22.5 16.8 22.5H8.8C7.11984 22.5 6.27976 22.5 5.63803 22.173C5.07354 21.8854 4.6146 21.4265 4.32698 20.862C4 20.2202 4 19.3802 4 17.7V7.3Z" stroke="#1D63ED" stroke-width="2" stroke-linecap="round" stroke-linejoin="round"></path></svg> 